<svg xmlns="http://www.w3.org/2000/svg" viewBox="0 0 64 64">
  <defs>
    <linearGradient id="bg2" x1="0" x2="1">
      <stop offset="0%" stop-color="#10b981"/>
      <stop offset="100%" stop-color="#06b6d4"/>
    </linearGradient>
  </defs>
  <rect width="64" height="64" rx="12" fill="url(#bg2)"/>
  <!-- shoulders -->
  <path d="M18 52c5-8 23-8 28 0v6H18z" fill="#0f172a" opacity=".9"/>
  <!-- face (medium) -->
  <circle cx="32" cy="28" r="12" fill="#f3caa7"/>
  <!-- hair (side part) -->
  <path d="M20 29c1-7 7-12 14-12 4 0 7 2 8 5-4-1-9 0-14 2-3 1-6 3-8 5z" fill="#3f2d20"/>
  <!-- eyes -->
  <rect x="26.5" y="27" width="2.4" height="1.6" rx="0.8" fill="#1f2937"/>
  <rect x="35.1" y="27" width="2.4" height="1.6" rx="0.8" fill="#1f2937"/>
  <!-- smile -->
  <path d="M26 33c2 3 8 3 12 0" stroke="#7c2d12" stroke-width="1.5" fill="none" stroke-linecap="round"/>
  <!-- shirt -->
  <path d="M14 56c3-9 11-14 18-14s15 5 18 14H14z" fill="#3b82f6"/>
</svg>
