<svg xmlns="http://www.w3.org/2000/svg" viewBox="0 0 64 64">
  <defs>
    <linearGradient id="bg5" x1="0" x2="1">
      <stop offset="0%" stop-color="#14b8a6"/>
      <stop offset="100%" stop-color="#06b6d4"/>
    </linearGradient>
  </defs>
  <rect width="64" height="64" rx="12" fill="url(#bg5)"/>
  <!-- shoulders -->
  <path d="M18 52c5-8 23-8 28 0v6H18z" fill="#0f172a" opacity=".9"/>
  <!-- face (brown) -->
  <circle cx="32" cy="28" r="12" fill="#c38a5a"/>
  <!-- hair (bun) -->
  <circle cx="38" cy="16" r="4" fill="#231b14"/>
  <path d="M20 30c1-9 7-14 12-14s11 3 12 10c-3-2-7-3-12-3s-9 1-12 3z" fill="#231b14"/>
  <!-- eyes -->
  <circle cx="28" cy="28.5" r="1.1" fill="#0b0f19"/>
  <circle cx="36" cy="28.5" r="1.1" fill="#0b0f19"/>
  <!-- smile -->
  <path d="M26.5 34c2 1.5 9 1.5 11 0" stroke="#9a3412" stroke-width="1.3" fill="none" stroke-linecap="round"/>
  <!-- shirt -->
  <path d="M14 56c3-9 11-14 18-14s15 5 18 14H14z" fill="#a78bfa"/>
</svg>
