<svg xmlns="http://www.w3.org/2000/svg" viewBox="0 0 64 64">
  <defs>
    <linearGradient id="bg6" x1="0" x2="1">
      <stop offset="0%" stop-color="#6366f1"/>
      <stop offset="100%" stop-color="#7c3aed"/>
    </linearGradient>
  </defs>
  <rect width="64" height="64" rx="12" fill="url(#bg6)"/>
  <!-- shoulders -->
  <path d="M16 54c5-9 25-9 32 0v4H16z" fill="#0b1020" opacity=".9"/>
  <!-- face (dark) -->
  <circle cx="32" cy="28" r="12" fill="#8c5a3c"/>
  <!-- hair (buzz) + beard -->
  <path d="M20 28c1-6 6-11 12-11s11 4 12 10c-3-2-6-3-12-3s-9 1-12 4z" fill="#1a1410"/>
  <path d="M24 34c2 4 14 4 16 0-1 5-5 8-8 8s-7-3-8-8z" fill="#1a1410" opacity=".9"/>
  <!-- eyes -->
  <circle cx="28" cy="28.5" r="1.2" fill="#0b0f19"/>
  <circle cx="36" cy="28.5" r="1.2" fill="#0b0f19"/>
  <!-- smile -->
  <path d="M27 33.5c2 1.5 10 1.5 12 0" stroke="#dc2626" stroke-width="1.4" fill="none" stroke-linecap="round"/>
  <!-- shirt -->
  <path d="M12 58c4-9 12-14 20-14s16 5 20 14H12z" fill="#0ea5e9"/>
</svg>
