<svg xmlns="http://www.w3.org/2000/svg" viewBox="0 0 64 64">
  <defs>
    <linearGradient id="bg3" x1="0" x2="1">
      <stop offset="0%" stop-color="#8b5cf6"/>
      <stop offset="100%" stop-color="#ec4899"/>
    </linearGradient>
  </defs>
  <rect width="64" height="64" rx="12" fill="url(#bg3)"/>
  <!-- shoulders -->
  <path d="M18 52c5-8 23-8 28 0v6H18z" fill="#0b1020" opacity=".9"/>
  <!-- face (light) -->
  <circle cx="32" cy="28" r="12" fill="#ffe3cf"/>
  <!-- hair (long) -->
  <path d="M20 30c0-9 6-14 12-14s12 5 12 14v6c-2 2-6 3-12 3s-10-1-12-3z" fill="#2a1b15"/>
  <!-- eyes -->
  <circle cx="27.5" cy="28.5" r="1.2" fill="#111827"/>
  <circle cx="36.5" cy="28.5" r="1.2" fill="#111827"/>
  <!-- smile -->
  <path d="M27 34c1.5 1.5 9.5 1.5 11 0" stroke="#ef4444" stroke-width="1.3" fill="none" stroke-linecap="round"/>
  <!-- shirt -->
  <path d="M14 56c3-8 11-13 18-13s15 5 18 13H14z" fill="#f59e0b"/>
</svg>
