<svg xmlns="http://www.w3.org/2000/svg" viewBox="0 0 64 64">
  <defs>
    <linearGradient id="bg4" x1="0" x2="1">
      <stop offset="0%" stop-color="#f59e0b"/>
      <stop offset="100%" stop-color="#ef4444"/>
    </linearGradient>
  </defs>
  <rect width="64" height="64" rx="12" fill="url(#bg4)"/>
  <!-- shoulders -->
  <path d="M16 54c5-9 25-9 32 0v4H16z" fill="#111827" opacity=".9"/>
  <!-- face (tan) -->
  <circle cx="32" cy="28" r="12" fill="#e9b18a"/>
  <!-- hair (short, curly) -->
  <path d="M20 27c1-6 7-11 12-11s10 3 12 9c-3-1-7-1-12-1s-9 1-12 3z" fill="#0b0f19"/>
  <!-- eyes -->
  <circle cx="28" cy="28" r="1.2" fill="#0b0f19"/>
  <circle cx="36" cy="28" r="1.2" fill="#0b0f19"/>
  <!-- smile -->
  <path d="M27 34c2 2 10 2 12 0" stroke="#b91c1c" stroke-width="1.4" fill="none" stroke-linecap="round"/>
  <!-- shirt -->
  <path d="M12 58c4-9 12-14 20-14s16 5 20 14H12z" fill="#22c55e"/>
</svg>
